<?xml version="1.0" encoding="UTF-8"?>
<svg version="1.1" xmlns="http://www.w3.org/2000/svg" width="1080" height="1080">
<path d="M0 0 C356.4 0 712.8 0 1080 0 C1080 356.4 1080 712.8 1080 1080 C723.6 1080 367.2 1080 0 1080 C0 723.6 0 367.2 0 0 Z " fill="#F3F1ED" transform="translate(0,0)"/>
<path d="M0 0 C0.96808594 0.48984375 1.93617188 0.9796875 2.93359375 1.484375 C47.07566206 24.29217808 76.81424798 69.55432718 91.97802734 115.69140625 C97.44266434 133.38294008 101.64805696 151.46683331 103.74414062 169.87060547 C104.1189188 172.989704 104.63091954 176.08538051 105.125 179.1875 C107.77108122 198.37236618 107.13954331 217.86300956 107.11607273 237.18485394 C107.1116661 241.75152595 107.11316995 246.31819698 107.11389065 250.88487053 C107.11441958 259.72581897 107.10982895 268.56675716 107.10338932 277.40770297 C107.09615634 287.64672159 107.09539277 297.88573414 107.09460449 308.12475586 C107.08936572 335.12483885 107.07540449 362.12491958 107.0625 389.125 C107.041875 449.47375 107.02125 509.8225 107 572 C-77.14 572 -261.28 572 -451 572 C-451.375 361.375 -451.375 361.375 -451.47802734 295.40380859 C-451.51803298 275.51594289 -451.51803298 275.51594289 -451.56045532 255.62808228 C-451.57896997 246.91852908 -451.59263216 238.2089868 -451.60269165 229.49942017 C-451.67248802 170.97506533 -452.26898242 112.500563 -454 54 C-454.03306154 52.8825565 -454.03306154 52.8825565 -454.066791 51.74253839 C-454.21646698 46.7095894 -454.37146633 41.67682322 -454.52963257 36.64413452 C-454.56860299 35.38700138 -454.60757341 34.12986823 -454.64772475 32.83464015 C-454.82630284 27.32918228 -455.02780366 21.83268363 -455.41326487 16.33746207 C-456.05587747 7.07963711 -456 -1.54655026 -456 -11 C-403.2 -11 -350.4 -11 -296 -11 C-293.69 11.44 -291.38 33.88 -289 57 C-288.67 58.98 -288.34 60.96 -288 63 C-287.88803927 65.67810075 -287.95374701 68.31732686 -288 71 C-286.08805299 70.85257819 -286.08805299 70.85257819 -284 70 C-282.39890431 67.94323597 -282.39890431 67.94323597 -281 65.3125 C-269.54461049 46.54977782 -251.95788024 29.50009311 -234 17 C-233.4328125 16.59910156 -232.865625 16.19820312 -232.28125 15.78515625 C-210.97834137 0.78902978 -188.05423484 -9.9277149 -163 -17 C-162.31292969 -17.19577637 -161.62585938 -17.39155273 -160.91796875 -17.59326172 C-108.71036833 -32.10241281 -47.54467539 -25.51439175 0 0 Z " fill="#1B1F23" transform="translate(876,508)"/>
<path d="M0 0 C60.72 0 121.44 0 184 0 C184 192.39 184 384.78 184 583 C123.28 583 62.56 583 0 583 C0 390.61 0 198.22 0 0 Z " fill="#1B1F23" transform="translate(95,497)"/>
<path d="M0 0 C8.69577158 6.06909386 13.59374549 14.40556208 18.70703125 23.515625 C19.70167252 25.26410999 20.69632888 27.01258674 21.69213867 28.76040649 C22.37032794 29.95158142 23.04757003 31.14329611 23.72387695 32.33554077 C27.00139082 38.11266378 30.34948574 43.84728239 33.70703125 49.578125 C40.45553085 61.12454221 47.14043121 72.70715706 53.81591797 84.29589844 C56.94383273 89.72472442 60.07561573 95.15131781 63.20703125 100.578125 C64.45705004 102.74478083 65.70705003 104.9114475 66.95703125 107.078125 C67.57578125 108.150625 68.19453125 109.223125 68.83203125 110.328125 C74.45703125 120.078125 74.45703125 120.078125 76.33227539 123.32861328 C77.58138643 125.49369571 78.83057254 127.65873482 80.07983398 129.82373047 C83.21905434 135.26428206 86.35693688 140.70559716 89.4921875 146.1484375 C95.53758284 156.64044594 101.59813344 167.12294176 107.70703125 177.578125 C115.72970636 191.30867688 123.66561384 205.08890466 131.60253906 218.86914062 C138.27659437 230.45494266 144.96167209 242.03365853 151.70703125 253.578125 C158.4480844 265.11522187 165.12870019 276.68664229 171.79833984 288.26513672 C174.37746017 292.74181398 176.95842179 297.21742678 179.54052734 301.69238281 C180.80649467 303.88758628 182.07116819 306.08353646 183.33447266 308.28027344 C186.19900244 313.25723218 189.07988217 318.22164527 192.0234375 323.15234375 C192.78672363 324.44023804 192.78672363 324.44023804 193.56542969 325.75415039 C194.49645726 327.32217214 195.43521711 328.88564428 196.38378906 330.44311523 C202.60806984 340.96575098 203.60202309 353.36355571 200.8671875 365.21875 C196.42307243 377.84781773 188.37813085 386.21847676 176.796875 392.63671875 C172.58062771 394.64399821 168.31734575 395.31883796 163.70703125 395.578125 C162.8672171 395.6259462 162.02740295 395.6737674 161.16213989 395.72303772 C152.8330502 395.95228078 145.47899807 394.42059622 137.44921875 392.32421875 C136.09405979 391.98107873 134.738593 391.63915248 133.38284302 391.2983551 C129.82876822 390.40128821 126.27933747 389.48703608 122.73059082 388.56915283 C119.20865906 387.66180668 115.68219218 386.77246521 112.15625 385.88085938 C98.29993072 382.36795197 84.47917879 378.73449115 70.68190002 374.99595642 C61.9172995 372.62394675 53.13755701 370.3253475 44.32202148 368.14990234 C42.75162701 367.75992632 41.18265941 367.36416995 39.61499023 366.96337891 C37.26968503 366.36416305 34.92075392 365.78181955 32.5703125 365.203125 C31.53285637 364.93302612 31.53285637 364.93302612 30.47444153 364.6574707 C23.48600116 362.97862794 18.31012141 363.82632227 12.1796875 367.46484375 C11.15294922 368.06619141 10.12621094 368.66753906 9.06835938 369.28710938 C7.97974609 369.94001953 6.89113281 370.59292969 5.76953125 371.265625 C4.6119928 371.94839374 3.45377731 372.63001584 2.29492188 373.31054688 C-0.08400764 374.70960596 -2.45925252 376.11461601 -4.83154297 377.52490234 C-9.96627146 380.57529082 -15.13135437 383.57354526 -20.29296875 386.578125 C-22.26176948 387.72777772 -24.230519 388.87751812 -26.19921875 390.02734375 C-35.91888419 395.69662058 -45.66441884 401.32061704 -55.42285156 406.92285156 C-57.97848294 408.39675261 -60.52420343 409.88591975 -63.06640625 411.3828125 C-80.63270733 421.64315228 -98.01584371 425.50167141 -118.046875 420.61328125 C-136.03800059 414.87603904 -146.80832562 401.43499985 -155.79296875 385.640625 C-156.39117432 384.60212402 -156.98937988 383.56362305 -157.60571289 382.49365234 C-158.86902847 380.29930849 -160.12948044 378.10331377 -161.38720703 375.90576172 C-163.25318314 372.64759437 -165.12862102 369.39509157 -167.0078125 366.14453125 C-170.14400939 360.7192569 -173.27396338 355.29041739 -176.40185547 349.86035156 C-178.90667447 345.512974 -181.41402765 341.16706111 -183.92163086 336.82128906 C-185.16612177 334.66449621 -186.41042609 332.50759569 -187.65454102 330.35058594 C-190.85163052 324.80768066 -194.05095376 319.26608219 -197.25390625 313.7265625 C-200.39240276 308.29792732 -203.52316956 302.86489812 -206.64941406 297.42919922 C-208.13564569 294.8510333 -209.63102937 292.27844047 -211.12890625 289.70703125 C-220.19253475 274.04237164 -224.06320823 258.12583978 -220.609375 239.98828125 C-219.68228759 237.06083926 -218.59998371 234.3555318 -217.29296875 231.578125 C-216.67421875 230.20140625 -216.67421875 230.20140625 -216.04296875 228.796875 C-206.11611554 208.71755828 -186.51738175 199.54988568 -167.82421875 189.21484375 C-161.61680997 185.7755789 -155.47667003 182.2306474 -149.35546875 178.640625 C-139.66152841 172.95677658 -129.93930643 167.32471971 -120.19555664 161.72680664 C-118.17641331 160.56489961 -116.16242077 159.39398452 -114.15429688 158.21313477 C-112.28320114 157.14396001 -110.38025313 156.12826645 -108.44726562 155.17553711 C-103.69035712 152.71944914 -100.91658671 150.88400436 -98.99609375 145.76953125 C-98.47214501 143.90389292 -97.98955425 142.02627874 -97.54296875 140.140625 C-97.2704126 139.1314502 -96.99785645 138.12227539 -96.71704102 137.08251953 C-95.87209371 133.9227253 -95.08081407 130.75257714 -94.29296875 127.578125 C-93.77959308 125.61495328 -93.26275504 123.65268319 -92.7421875 121.69140625 C-91.72952444 117.86084163 -90.73548955 114.02613944 -89.75390625 110.1875 C-87.92539664 103.09317567 -85.89246535 96.06120992 -83.859375 89.0234375 C-82.13483694 83.05160857 -80.46335763 77.06528516 -78.79296875 71.078125 C-75.90785632 60.75599178 -73.00833156 50.43879908 -70.02685547 40.14404297 C-69.26555336 37.48227145 -68.53048138 34.8140566 -67.796875 32.14453125 C-63.00260452 14.99453607 -63.00260452 14.99453607 -57.29296875 8.578125 C-56.720625 7.88847656 -56.14828125 7.19882812 -55.55859375 6.48828125 C-41.27207665 -9.36266851 -17.56550722 -10.89240993 0 0 Z " fill="#1B1F23" transform="translate(284.29296875,54.421875)"/>
<path d="M0 0 C1.051875 0.78375 2.10375 1.5675 3.1875 2.375 C29.38705305 26.82791618 35.29698575 64.97962532 37 99 C37.30730637 109.29224358 37.26031554 119.58966994 37.23213124 129.88537014 C37.22334209 133.92927595 37.2264276 137.97317714 37.22793579 142.01708984 C37.22897506 148.99244302 37.22280004 155.96775825 37.21146011 162.94310188 C37.19507614 173.02777274 37.18998406 183.1124256 37.18748413 193.19710832 C37.18312704 209.56623035 37.16987239 225.93533224 37.15087891 242.30444336 C37.13246831 258.18790591 37.11836027 274.07136292 37.10986328 289.95483398 C37.10932729 290.94692755 37.10879129 291.93902112 37.10823905 292.96117812 C37.10407923 300.72215118 37.10016572 308.48312436 37.09632993 316.24409759 C37.07752612 354.16275023 37.03727462 392.08135233 37 430 C-26.69 430 -90.38 430 -156 430 C-156.12099405 343.72676309 -156.12099405 343.72676309 -156.14648438 307.62890625 C-156.1523574 299.36735008 -156.15841867 291.10579408 -156.16479492 282.84423828 C-156.16558617 281.80888282 -156.16637741 280.77352735 -156.16719264 279.70679748 C-156.18021667 263.02337487 -156.20385488 246.33998348 -156.23145839 229.65657935 C-156.25957962 212.51645663 -156.27619042 195.37635018 -156.28226548 178.23620534 C-156.28636803 167.67216886 -156.29929384 157.10822065 -156.3237494 146.54421136 C-156.33968965 139.28583458 -156.34438174 132.02750298 -156.34050413 124.76910999 C-156.33859539 120.59047206 -156.34138088 116.41198763 -156.35761642 112.23337746 C-156.50378703 72.55764829 -151.0963729 37.50189726 -122 8 C-89.91341934 -23.626558 -35.58707055 -28.52946664 0 0 Z " fill="#F3F1ED" transform="translate(764,650)"/>
<path d="M0 0 C17.49 0 34.98 0 53 0 C52.88889893 4.33898437 52.77779785 8.67796875 52.66333008 13.1484375 C52.31516134 27.52437521 52.11588939 41.89957675 51.99222279 56.27911377 C51.91367028 64.9942012 51.78521701 73.70302605 51.53588867 82.41503906 C51.31848691 90.01602945 51.19816344 97.61157535 51.19057769 105.21577263 C51.18327033 109.23930496 51.13003951 113.24949356 50.96009254 117.26971436 C49.8359952 134.22353472 49.8359952 134.22353472 56.66049767 148.90536118 C62.95015933 154.16721267 70.35548512 157.53796623 77.87383461 160.66973591 C81.78900494 162.33574198 85.29011613 164.35554653 88.91796875 166.5703125 C91.00665493 167.75724767 93.09645795 168.94222015 95.1875 170.125 C104.84966685 175.61479713 114.47166617 181.16945664 124.06323242 186.78173828 C131.35954725 191.04906311 138.67540303 195.28142366 146 199.5 C154.75847354 204.54794827 163.51141643 209.60518269 172.25 214.6875 C173.24386719 215.26371094 174.23773437 215.83992187 175.26171875 216.43359375 C179.941173 219.15948943 184.54117652 221.9252073 189 225 C180.97951473 240.39126642 172.17123349 255.26966689 163 270 C159.36942954 269.4305456 156.74712016 268.49162698 153.61328125 266.5859375 C152.77104004 266.08006104 151.92879883 265.57418457 151.06103516 265.05297852 C150.15401855 264.49924561 149.24700195 263.9455127 148.3125 263.375 C146.32763079 262.18224833 144.34191848 260.99089881 142.35546875 259.80078125 C140.79578369 258.86419678 140.79578369 258.86419678 139.20458984 257.90869141 C133.87775849 254.73596799 128.50128522 251.65043006 123.125 248.5625 C114.73420731 243.73502246 106.35727886 238.88527282 98 234 C89.32764103 228.93188877 80.63903474 223.89279042 71.9375 218.875 C70.84888672 218.24722656 69.76027344 217.61945313 68.63867188 216.97265625 C63.43133561 213.97181841 58.21827585 210.98187191 53 208 C53 248.26 53 288.52 53 330 C35.51 330 18.02 330 0 330 C0 279.18 0 228.36 0 176 C-1.65 175.34 -3.3 174.68 -5 174 C-6.93996512 172.96310728 -8.86188158 171.89208452 -10.76953125 170.796875 C-11.89311035 170.15355225 -13.01668945 169.51022949 -14.17431641 168.84741211 C-15.38711721 168.14840128 -16.59984319 167.44926061 -17.8125 166.75 C-19.07459978 166.0252852 -20.33680831 165.30075976 -21.59912109 164.57641602 C-30.4413426 159.49707067 -39.25618634 154.37094896 -48.05786133 149.22167969 C-55.35570855 144.95277427 -62.67348725 140.71949744 -70 136.5 C-88.0567932 126.09708681 -106.04939436 115.58500387 -124 105 C-122.58975307 101.22704244 -120.85824415 97.83496367 -118.83984375 94.3515625 C-118.214729 93.26987793 -117.58961426 92.18819336 -116.94555664 91.07373047 C-116.28289795 89.93564941 -115.62023926 88.79756836 -114.9375 87.625 C-114.25822294 86.45338006 -113.57910565 85.28166747 -112.90014648 84.10986328 C-108.01490829 75.69070238 -103.06238385 67.31383364 -98 59 C-94.19037936 60.424206 -90.75596032 62.17908883 -87.23046875 64.203125 C-86.10688965 64.84644775 -84.98331055 65.48977051 -83.82568359 66.15258789 C-82.61288279 66.85159872 -81.40015681 67.55073939 -80.1875 68.25 C-78.92540022 68.9747148 -77.66319169 69.69924024 -76.40087891 70.42358398 C-67.56520125 75.49917027 -58.75631038 80.62056316 -49.96191406 85.76733398 C-41.44606339 90.75002764 -32.90017305 95.67971171 -24.34130859 100.58813477 C-16.16113546 105.2919648 -8.09618049 110.14229171 0 115 C0 77.05 0 39.1 0 0 Z " fill="#1B1F23" transform="translate(459,0)"/>
</svg>
