<?xml version="1.0" encoding="UTF-8"?>
<svg version="1.1" xmlns="http://www.w3.org/2000/svg" width="1080" height="1080">
<path d="M0 0 C356.4 0 712.8 0 1080 0 C1080 356.4 1080 712.8 1080 1080 C723.6 1080 367.2 1080 0 1080 C0 723.6 0 367.2 0 0 Z " fill="#FE0000" transform="translate(0,0)"/>
<path d="M0 0 C0.92264648 0.22461914 1.84529297 0.44923828 2.79589844 0.68066406 C49.46166133 12.42832955 89.08885585 41.92141598 114.13232422 82.85058594 C128.89681786 107.6448614 137.95584545 133.8340393 144 162 C144.16338867 162.75861328 144.32677734 163.51722656 144.49511719 164.29882812 C146.21113027 172.43542949 147.44682639 180.64633867 148.625 188.875 C148.81002075 190.13026489 148.81002075 190.13026489 148.9987793 191.41088867 C151.69249167 211.12066095 151.14040821 231.1029835 151.11606562 250.94737244 C151.11170556 255.41335541 151.11321145 259.87933715 151.1139679 264.34532166 C151.11448964 272.06343561 151.11137954 279.78154105 151.10573006 287.49965286 C151.09756744 298.65844318 151.09499498 309.81722943 151.09374207 320.97602241 C151.091559 339.08492873 151.08491918 357.19383051 151.07543945 375.30273438 C151.06624601 392.8831378 151.05918613 410.46353997 151.05493164 428.04394531 C151.05466364 429.14050996 151.05439565 430.23707461 151.05411953 431.3668685 C151.05203983 439.94403233 151.05008301 448.52119619 151.04816496 457.09836006 C151.03874878 499.06557753 151.01862634 541.03278365 151 583 C92.26 583 33.52 583 -27 583 C-27.04898437 559.69632813 -27.09796875 536.39265625 -27.1484375 512.3828125 C-27.18383259 497.59895481 -27.2197064 482.81510059 -27.2578125 468.03125 C-27.27781709 460.26041704 -27.29770098 452.48958378 -27.31738281 444.71875 C-27.31985425 443.74495573 -27.32232569 442.77116146 -27.32487202 441.76785827 C-27.36446792 426.09711615 -27.39726439 410.42636693 -27.42749982 394.75560428 C-27.45873952 378.64374079 -27.49740119 362.5319071 -27.54279006 346.4200772 C-27.57051286 336.49792664 -27.59261511 326.57579759 -27.60726251 316.65361898 C-27.61789792 309.82689277 -27.63581618 303.00020851 -27.65916704 296.17351408 C-27.67238376 292.24936518 -27.68267345 288.32527439 -27.68421364 284.40110207 C-27.56853884 250.43297532 -27.56853884 250.43297532 -32.25 216.875 C-32.46615967 215.84842285 -32.68231934 214.8218457 -32.9050293 213.76416016 C-36.92890841 195.50249129 -44.41036058 178.02845535 -57 164 C-57.52851562 163.37867188 -58.05703125 162.75734375 -58.6015625 162.1171875 C-70.04799629 149.54302625 -88.73415763 141.70881942 -105.5 140.81298828 C-109.31470361 140.73226177 -113.12206181 140.72702697 -116.9375 140.75 C-118.21818359 140.74226562 -119.49886719 140.73453125 -120.81835938 140.7265625 C-145.93713548 140.77774696 -166.50708758 150.30641842 -184.57421875 167.44140625 C-211.69966481 196.17639012 -215.46780906 231.7934708 -215.43273985 269.37257826 C-215.43210917 273.59249129 -215.44879913 277.81234315 -215.46325684 282.03222656 C-215.48592168 289.32197732 -215.49790685 296.61168069 -215.50238609 303.90146446 C-215.50887793 314.44091645 -215.53186818 324.9802832 -215.55872939 335.51970062 C-215.60188161 352.62420569 -215.63191419 369.72870714 -215.65356445 386.83325195 C-215.67460895 403.43678566 -215.70194799 420.0402897 -215.73754883 436.64379883 C-215.73976234 437.67974542 -215.74197585 438.71569201 -215.74425644 439.78303093 C-215.7616194 447.88627129 -215.77934438 455.98951086 -215.79718363 464.09275019 C-215.88434908 503.72848167 -215.93997398 543.36420017 -216 583 C-275.07 583 -334.14 583 -395 583 C-395.01981934 569.75230469 -395.03963867 556.50460937 -395.06005859 542.85546875 C-395.12515892 500.24502464 -395.19970908 457.63460161 -395.28005161 415.02418363 C-395.2925673 408.38184521 -395.30500277 401.73950664 -395.31738281 395.09716797 C-395.31861614 394.43629579 -395.31984946 393.77542362 -395.32112016 393.09452501 C-395.36203306 371.14753674 -395.39624778 349.20054361 -395.42749982 327.2535392 C-395.4588491 305.34457313 -395.49755423 283.43562851 -395.54279006 261.52668667 C-395.56793014 249.25227993 -395.58986256 236.97788625 -395.60334396 224.70346069 C-395.58424557 156.32812075 -395.58424557 156.32812075 -397.65002716 87.99271774 C-398.13872837 77.44172178 -398.37757976 66.88497077 -398.61045003 56.32576752 C-398.96590284 40.21232746 -399.49650064 24.1119795 -400 8 C-348.19 8 -296.38 8 -243 8 C-241.02 28.295 -241.02 28.295 -239 49 C-238.26126104 56.18902452 -237.51952518 63.37686228 -236.75 70.5625 C-236.57536099 72.20636324 -236.4008833 73.85024362 -236.2265625 75.49414062 C-235.81951833 79.32962211 -235.41046931 83.16488362 -235 87 C-234.01 87 -233.02 87 -232 87 C-230.48565351 85.01120784 -230.48565351 85.01120784 -229.0625 82.375 C-203.21454975 40.24445323 -155.03275943 11.66129945 -108 0 C-73.25445415 -7.67890254 -34.63075749 -8.60341814 0 0 Z " fill="#000000" transform="translate(839,451)"/>
<path d="M0 0 C59.4 0 118.8 0 180 0 C180 190.08 180 380.16 180 576 C120.6 576 61.2 576 0 576 C0 385.92 0 195.84 0 0 Z " fill="#000000" transform="translate(121,458)"/>
<path d="M0 0 C4.86986857 3.58832421 7.60053447 7.05036781 10.5 12.3125 C11.37072642 13.8413551 12.24184268 15.36998821 13.11328125 16.8984375 C13.57686035 17.72053711 14.04043945 18.54263672 14.51806641 19.38964844 C16.62229127 23.0961348 18.77999897 26.77056093 20.93530273 30.44750977 C28.3896 43.16769627 35.74983299 55.94234992 43.10888672 68.71777344 C46.23680148 74.14659942 49.36858448 79.57319281 52.5 85 C53.75001879 87.16665583 55.00001878 89.3333225 56.25 91.5 C57.178125 93.10875 57.178125 93.10875 58.125 94.75 C63.75 104.5 63.75 104.5 65.62524414 107.75048828 C66.87435518 109.91557071 68.12354129 112.08060982 69.37280273 114.24560547 C72.51202309 119.68615706 75.64990563 125.12747216 78.78515625 130.5703125 C84.8305518 141.06232131 90.89115248 151.54478712 97 162 C104.38347065 174.63783698 111.7037462 187.31163669 119 200 C119.88026855 201.52971436 119.88026855 201.52971436 120.77832031 203.09033203 C122.43766413 205.97567888 124.09438189 208.86251404 125.75 211.75 C126.23936035 212.60102295 126.7287207 213.4520459 127.23291016 214.32885742 C128.50139115 216.54566182 129.75312721 218.77099584 131 221 C131.59425781 222.0415625 132.18851562 223.083125 132.80078125 224.15625 C135.67094079 230.96236122 134.89821225 239.48946617 132.5 246.375 C129.09998329 253.62836898 123.21429837 259.52704166 115.62800598 262.29786682 C104.402085 265.29713381 92.84651096 261.66987049 81.95703125 258.87890625 C80.25435754 258.45405692 78.55136325 258.03049054 76.84806824 257.60813904 C72.40510707 256.50253203 67.96702494 255.37844734 63.52966309 254.25061035 C59.89181303 253.32933982 56.25070644 252.42136269 52.60936451 251.51400852 C48.26586333 250.43151838 43.92370277 249.34370947 39.58203125 248.25390625 C38.34065368 247.94232669 38.34065368 247.94232669 37.07419777 247.62445259 C34.74510786 247.03835542 32.4169467 246.44872373 30.08911133 245.85766602 C29.3967186 245.68359726 28.70432587 245.5095285 27.99095154 245.33018494 C23.23093252 244.11546626 23.23093252 244.11546626 21 243 C18.13555323 242.42064695 18.13555323 242.42064695 15 243 C12.98058873 244.95885921 11.46161296 246.70473643 9.8125 248.9375 C2.08642619 258.68132077 -6.77777709 265.60672286 -18 271 C-19.55267578 271.77150391 -19.55267578 271.77150391 -21.13671875 272.55859375 C-45.37774372 283.84854847 -75.91757948 285.63555535 -101.30859375 277.23632812 C-123.79534917 268.87895111 -141.12214638 253.5983782 -151.27734375 231.8671875 C-157.3151729 218.49700816 -159.41844347 206.48476245 -159.375 191.8125 C-159.37445618 191.12302277 -159.37391235 190.43354553 -159.37335205 189.72317505 C-159.33647067 179.57209256 -158.82594346 170.52340107 -155 161 C-154.55269531 159.79859375 -154.10539062 158.5971875 -153.64453125 157.359375 C-144.49445398 134.30019904 -126.21458797 118.31634696 -104.0234375 108.10546875 C-95.44874706 104.97027832 -86.85656813 103.37411929 -77.8125 102.3125 C-76.76513672 102.18294922 -75.71777344 102.05339844 -74.63867188 101.91992188 C-72.0932316 101.60610047 -69.54714975 101.29957024 -67 101 C-66.89333008 100.41589355 -66.78666016 99.83178711 -66.67675781 99.22998047 C-65.38002384 92.418785 -63.64946937 85.79058108 -61.75 79.125 C-61.4398999 78.02567139 -61.1297998 76.92634277 -60.81030273 75.79370117 C-58.74051608 68.49308575 -56.57409069 61.22632381 -54.34301758 53.97363281 C-52.78276156 48.82586682 -51.36756022 43.64942864 -50.0234375 38.44140625 C-49.85108078 37.77766495 -49.67872406 37.11392365 -49.50114441 36.43006897 C-48.64578971 33.1328687 -47.80261885 29.83386107 -46.97875977 26.52856445 C-43.84474676 14.36486245 -40.29904714 4.64801128 -29.19921875 -2.09375 C-20.19961775 -6.25630635 -8.22937305 -5.4394909 0 0 Z " fill="#000000" transform="translate(277,106)"/>
<path d="M0 0 C11.55 0 23.1 0 35 0 C35 32.34 35 64.68 35 98 C36.65 98.66 38.3 99.32 40 100 C41.79447536 100.96354525 43.57085038 101.96124099 45.33203125 102.984375 C46.36521484 103.5825 47.39839844 104.180625 48.46289062 104.796875 C50.12094727 105.76367188 50.12094727 105.76367188 51.8125 106.75 C52.97965943 107.42735613 54.14697975 108.10443512 55.31445312 108.78125 C58.87910806 110.84936114 62.43998022 112.92392266 66 115 C67.03817871 115.60521484 68.07635742 116.21042969 69.14599609 116.83398438 C73.0720204 119.12357765 76.99757588 121.41396099 80.92114258 123.70776367 C86.27120449 126.83360776 91.62952979 129.94450726 97 133.03515625 C97.58587891 133.37243744 98.17175781 133.70971863 98.77539062 134.05722046 C101.6068348 135.68680007 104.4393741 137.31443228 107.2734375 138.93945312 C112.92200325 142.18702273 118.5015181 145.50397004 124 149 C123.41497025 152.97000384 122.1900656 155.76540713 120.12890625 159.1953125 C119.55462891 160.15824219 118.98035156 161.12117187 118.38867188 162.11328125 C117.4847168 163.60408203 117.4847168 163.60408203 116.5625 165.125 C115.96373047 166.12660156 115.36496094 167.12820312 114.74804688 168.16015625 C112.55613515 171.81743337 110.36540198 175.45189704 108 179 C103.86510217 177.73577908 100.3006019 176.19522439 96.5703125 174.015625 C95.53962646 173.41709717 94.50894043 172.81856934 93.44702148 172.2019043 C92.35075439 171.55777588 91.2544873 170.91364746 90.125 170.25 C88.96911846 169.57608614 87.81294508 168.90267262 86.65649414 168.22973633 C84.27486707 166.84261723 81.89516818 165.45227612 79.51708984 164.05908203 C76.19863144 162.11513842 72.87531573 160.1796311 69.55078125 158.24609375 C58.01331258 151.53200571 46.50598921 144.76822895 35 138 C35 164.73 35 191.46 35 219 C23.45 219 11.9 219 0 219 C0.09015381 215.9781958 0.18030762 212.9563916 0.27319336 209.84301758 C0.55515672 199.82155907 0.70879303 189.80102548 0.80052853 179.77611256 C0.86001792 173.70071043 0.96166873 167.63232278 1.16235352 161.55981445 C3.54171198 136.59845408 3.54171198 136.59845408 -3.16287231 113.60144043 C-8.43610433 108.67583521 -14.35112195 106.46893509 -21.26797485 104.73532104 C-24.89346241 103.75952574 -27.44541375 102.23865136 -30.58203125 100.1953125 C-31.45794922 99.68218506 -32.33386719 99.16905762 -33.23632812 98.64038086 C-34.08646484 98.14030518 -34.93660156 97.64022949 -35.8125 97.125 C-42.20047049 93.3817477 -48.59428157 89.6495822 -55.01171875 85.95703125 C-55.59685745 85.62024353 -56.18199615 85.28345581 -56.78486633 84.9364624 C-59.61295542 83.30923589 -62.44215713 81.68398119 -65.27270508 80.06103516 C-70.9214705 76.81322842 -76.50127112 73.49618699 -82 70 C-80.24171744 65.08076004 -77.67990193 60.66125444 -75.125 56.125 C-74.47337891 54.95904297 -74.47337891 54.95904297 -73.80859375 53.76953125 C-71.23151037 49.16483272 -68.62458554 44.57776547 -66 40 C-62.76879704 40.65406544 -60.28005757 41.81984478 -57.421875 43.44921875 C-56.52009521 43.96073486 -55.61831543 44.47225098 -54.68920898 44.99926758 C-53.71927002 45.55638428 -52.74933105 46.11350098 -51.75 46.6875 C-50.73945557 47.26330811 -49.72891113 47.83911621 -48.68774414 48.43237305 C-40.29384037 53.22731862 -31.93741359 58.08718948 -23.59863281 62.97729492 C-16.0965867 67.37624583 -8.55258121 71.68423931 -1 76 C-0.67 50.92 -0.34 25.84 0 0 Z " fill="#020000" transform="translate(392,70)"/>
</svg>
